<?xml version="1.0" encoding="UTF-8"?><svg id="Layer_1" xmlns="http://www.w3.org/2000/svg" viewBox="0 0 1108.79 1130.63"><defs><style>.cls-1{fill:#0b050c;}.cls-1,.cls-2,.cls-3{stroke-width:0px;}.cls-2{fill:#e79730;}.cls-3{fill-rule:evenodd;}</style></defs><path class="cls-1" d="M463.86,621.67c0,84.77-28.06,153.49-62.67,153.49s-62.67-68.72-62.67-153.49,28.05-153.5,62.67-153.5,62.67,68.72,62.67,153.5Z"/><path class="cls-1" d="M770.26,621.67c0,84.77-28.05,153.49-62.67,153.49s-62.67-68.72-62.67-153.49,28.05-153.5,62.67-153.5,62.67,68.72,62.67,153.5Z"/><path class="cls-2" d="M1095.94,499.69c-7.08-22.47-28.13-37.61-51.7-37.61v-134.48h0c-140.68-87.93-299.12-134.58-458.66-139.96l-8.46-72.69c21.71-8.94,36.99-30.3,36.99-55.23,0-32.99-26.74-59.72-59.72-59.72s-59.72,26.74-59.72,59.72c0,24.93,15.28,46.29,36.99,55.23l-8.47,72.69c-159.52,5.38-317.97,52.03-458.66,139.96h0v134.48h0c-23.56,0-44.6,15.14-51.68,37.61-17.14,54.37-17.14,112.74,0,167.11,7.08,22.47,28.12,37.61,51.68,37.61h0v122.12l129.09-82.65v-333.61h0c59.13-37.38,123.23-64.6,189.59-81.71,109.38,59.46,232.99,59.46,342.36,0,66.37,17.1,130.46,44.32,189.58,81.71h0v333.61l129.08,82.65v-122.12c23.57,0,44.62-15.14,51.7-37.61,17.13-54.37,17.13-112.74,0-167.11Z"/><path class="cls-3" d="M1022.82,874.66c-5.04-7.77-8.44-15.81-10.44-23.86l-114.68-66.38c-101.84,125.37-285.83,187.27-454.86,143.29-95.56-24.86-174.28-75.68-228.61-142.21l-106,61.34c-.49,12.5-4.63,25.03-12.3,37.52-8.32,13.51-16.82,26.96-25.99,40.01-3.92,5.58-3.29,9.34,1.59,13.64,25.07,22.08,50.14,44.16,74.96,66.47,5.2,4.68,9.52,4.25,15.16.96,13.71-8.01,27.66-15.7,41.58-23.39,29.76-16.46,60.48-17.72,90.72-2.16,29.86,15.37,44.14,39.64,44.11,70.72-.02,15.14-.39,30.29.27,45.41.14,3.12,3.57,8.13,6.51,8.85,34.81,8.56,69.84,16.39,104.74,24.62,6.2,1.46,9.05-.88,11.68-5.5,7.14-12.49,14.82-24.72,22.06-37.17,16.35-28.14,41.52-44.47,77.07-45.13,36.47-.67,62.95,14.77,80.38,43.62,8.88,14.71,18.53,29.02,28.99,45.31,36.75-9.93,72.76-19.76,108.85-29.35,6.7-1.77,9-4.96,8.51-11.32-1.05-13.69-1.1-27.44-1.81-41.15-1.68-32.32,11.92-57.9,42.67-74.55,30.39-16.46,61.36-15.17,91.71,1.28,15.96,8.65,32.18,16.94,49.16,25.84,13.33-11.14,26.93-21.65,39.39-33.17,14.69-13.57,28.65-27.82,42.23-42.3,1.97-2.11,1.48-7.93-.32-10.78-8.66-13.72-18.47-26.83-27.32-40.46Z"/></svg>